<svg width="30" height="30" viewBox="0 0 30 30" fill="none" xmlns="http://www.w3.org/2000/svg">
<circle cx="15.0001" cy="15" r="15" fill="#5855D6"/>
<path d="M20.3025 9.69752C19.0719 8.45889 17.4478 7.68843 15.71 7.51895C13.9722 7.34947 12.2298 7.7916 10.7831 8.76912C9.33634 9.74663 8.276 11.1983 7.78485 12.8738C7.2937 14.5493 7.40251 16.3436 8.09253 17.9475C8.16445 18.0966 8.18804 18.2644 8.16003 18.4275L7.50003 21.6C7.4746 21.7217 7.47979 21.8477 7.51514 21.9668C7.55048 22.086 7.61488 22.1944 7.70253 22.2825C7.77438 22.3538 7.85993 22.4099 7.95403 22.4473C8.04812 22.4847 8.14881 22.5026 8.25003 22.5H8.40003L11.61 21.855C11.7732 21.8354 11.9386 21.8587 12.09 21.9225C13.6939 22.6125 15.4883 22.7213 17.1638 22.2302C18.8393 21.739 20.2909 20.6787 21.2684 19.232C22.2459 17.7853 22.6881 16.0428 22.5186 14.3051C22.3491 12.5673 21.5787 10.9431 20.34 9.71252L20.3025 9.69752ZM12 15.75C11.8517 15.75 11.7067 15.706 11.5834 15.6236C11.46 15.5412 11.3639 15.4241 11.3071 15.287C11.2504 15.15 11.2355 14.9992 11.2644 14.8537C11.2934 14.7082 11.3648 14.5746 11.4697 14.4697C11.5746 14.3648 11.7082 14.2934 11.8537 14.2644C11.9992 14.2355 12.15 14.2503 12.287 14.3071C12.4241 14.3639 12.5412 14.46 12.6236 14.5833C12.706 14.7067 12.75 14.8517 12.75 15C12.75 15.1989 12.671 15.3897 12.5304 15.5303C12.3897 15.671 12.1989 15.75 12 15.75ZM15 15.75C14.8517 15.75 14.7067 15.706 14.5833 15.6236C14.46 15.5412 14.3639 15.4241 14.3071 15.287C14.2504 15.15 14.2355 14.9992 14.2644 14.8537C14.2934 14.7082 14.3648 14.5746 14.4697 14.4697C14.5746 14.3648 14.7082 14.2934 14.8537 14.2644C14.9992 14.2355 15.15 14.2503 15.287 14.3071C15.4241 14.3639 15.5412 14.46 15.6236 14.5833C15.706 14.7067 15.75 14.8517 15.75 15C15.75 15.1989 15.671 15.3897 15.5304 15.5303C15.3897 15.671 15.1989 15.75 15 15.75ZM18 15.75C17.8517 15.75 17.7067 15.706 17.5833 15.6236C17.46 15.5412 17.3639 15.4241 17.3071 15.287C17.2504 15.15 17.2355 14.9992 17.2644 14.8537C17.2934 14.7082 17.3648 14.5746 17.4697 14.4697C17.5746 14.3648 17.7082 14.2934 17.8537 14.2644C17.9992 14.2355 18.15 14.2503 18.287 14.3071C18.4241 14.3639 18.5412 14.46 18.6236 14.5833C18.706 14.7067 18.75 14.8517 18.75 15C18.75 15.1989 18.671 15.3897 18.5304 15.5303C18.3897 15.671 18.1989 15.75 18 15.75Z" fill="white"/>
</svg>
